<svg width="18" height="19" viewBox="0 0 18 19" fill="none" xmlns="http://www.w3.org/2000/svg">
<path d="M6.75 7.0925V11.9075C6.75 12.2525 6.9075 12.515 7.2225 12.695C7.5375 12.875 7.845 12.86 8.145 12.65L11.88 10.265C12.165 10.085 12.3075 9.83 12.3075 9.5C12.3075 9.17 12.165 8.915 11.88 8.735L8.145 6.35C7.845 6.14 7.5375 6.125 7.2225 6.305C6.9075 6.485 6.75 6.7475 6.75 7.0925ZM9 18.5C7.755 18.5 6.585 18.2636 5.49 17.7908C4.395 17.3186 3.4425 16.6775 2.6325 15.8675C1.8225 15.0575 1.1814 14.105 0.7092 13.01C0.2364 11.915 0 10.745 0 9.5C0 8.255 0.2364 7.085 0.7092 5.99C1.1814 4.895 1.8225 3.9425 2.6325 3.1325C3.4425 2.3225 4.395 1.6811 5.49 1.2083C6.585 0.7361 7.755 0.5 9 0.5C10.245 0.5 11.415 0.7361 12.51 1.2083C13.605 1.6811 14.5575 2.3225 15.3675 3.1325C16.1775 3.9425 16.8186 4.895 17.2908 5.99C17.7636 7.085 18 8.255 18 9.5C18 10.745 17.7636 11.915 17.2908 13.01C16.8186 14.105 16.1775 15.0575 15.3675 15.8675C14.5575 16.6775 13.605 17.3186 12.51 17.7908C11.415 18.2636 10.245 18.5 9 18.5Z" fill="#F3F5FF"/>
</svg>
