<svg width="28" height="24" viewBox="0 0 28 24" fill="none" xmlns="http://www.w3.org/2000/svg">
<path d="M28 3.30016C26.9694 3.76861 25.8585 4.07645 24.7075 4.22367C25.8853 3.5143 26.7954 2.39002 27.2237 1.0382C26.1128 1.70742 24.8815 2.17587 23.5832 2.44356C22.5258 1.29251 21.0402 0.623291 19.3537 0.623291C16.2084 0.623291 13.6386 3.19308 13.6386 6.36517C13.6386 6.82023 13.6922 7.26192 13.7859 7.67683C9.02103 7.43591 4.7782 5.14719 1.95411 1.68065C1.45889 2.52386 1.17782 3.5143 1.17782 4.55828C1.17782 6.55255 2.18164 8.31928 3.73423 9.3231C2.78394 9.3231 1.90057 9.05541 1.12428 8.65388V8.69404C1.12428 11.478 3.10516 13.8068 5.72849 14.3288C4.88625 14.5593 4.00204 14.5914 3.14532 14.4225C3.50884 15.5635 4.2208 16.5619 5.18109 17.2773C6.14139 17.9927 7.30175 18.3892 8.49904 18.4111C6.46949 20.0178 3.95372 20.8862 1.3652 20.8738C0.910134 20.8738 0.455067 20.847 0 20.7935C2.54302 22.4264 5.56788 23.3766 8.80688 23.3766C19.3537 23.3766 25.1491 14.6233 25.1491 7.03438C25.1491 6.78008 25.1491 6.53916 25.1358 6.28486C26.26 5.4818 27.2237 4.46459 28 3.30016Z" fill="#797B88"/>
</svg>
