<svg width="28" height="28" viewBox="0 0 28 28" fill="none" xmlns="http://www.w3.org/2000/svg">
<path d="M6.26822 28.0005H0.463017V9.30584H6.26822V28.0005ZM3.36212 6.75575C1.50605 6.75575 0 5.2177 0 3.36163C0 2.46994 0.354222 1.61477 0.984742 0.984254C1.61526 0.353734 2.47043 -0.000488281 3.36212 -0.000488281C4.25381 -0.000488281 5.10898 0.353734 5.7395 0.984254C6.37002 1.61477 6.72424 2.46994 6.72424 3.36163C6.72424 5.2177 5.21819 6.75575 3.36212 6.75575ZM27.995 28.0005H22.2028V18.9002C22.2028 16.7311 22.1588 13.95 19.1847 13.95C16.1666 13.95 15.7036 16.3061 15.7036 18.7442V28.0005H9.90435V9.30584H15.4716V11.8559H15.5526C16.3276 10.3869 18.2207 8.83683 21.0448 8.83683C26.92 8.83683 28 12.706 28 17.7311V28.0005H27.995Z" fill="#797B88"/>
</svg>
