<svg width="18" height="19" viewBox="0 0 18 19" fill="none" xmlns="http://www.w3.org/2000/svg">
<path d="M17.1 2.3H4.5C4.02261 2.3 3.56477 2.48964 3.22721 2.82721C2.88964 3.16477 2.7 3.62261 2.7 4.1C2.7 4.57739 2.88964 5.03523 3.22721 5.37279C3.56477 5.71036 4.02261 5.9 4.5 5.9H17.1V17.6C17.1 17.8387 17.0052 18.0676 16.8364 18.2364C16.6676 18.4052 16.4387 18.5 16.2 18.5H4.5C3.54522 18.5 2.62954 18.1207 1.95441 17.4456C1.27928 16.7705 0.899998 15.8548 0.899998 14.9V4.1C0.899998 3.14522 1.27928 2.22955 1.95441 1.55442C2.62954 0.879285 3.54522 0.5 4.5 0.5H16.2C16.4387 0.5 16.6676 0.594821 16.8364 0.763604C17.0052 0.932387 17.1 1.16131 17.1 1.4V2.3ZM16.2 5H4.5C4.2613 5 4.03239 4.90518 3.8636 4.7364C3.69482 4.56761 3.6 4.33869 3.6 4.1C3.6 3.8613 3.69482 3.63239 3.8636 3.4636C4.03239 3.29482 4.2613 3.2 4.5 3.2H16.2V5Z" fill="#F3F5FF"/>
</svg>
