<svg width="28" height="28" viewBox="0 0 28 28" fill="none" xmlns="http://www.w3.org/2000/svg">
<path d="M14 0.339111C12.1615 0.339111 10.341 0.701232 8.64243 1.4048C6.94387 2.10836 5.40053 3.1396 4.1005 4.43962C1.475 7.06513 0 10.6261 0 14.3391C0 20.5271 4.018 25.7771 9.576 27.6391C10.276 27.7511 10.5 27.3171 10.5 26.9391V24.5731C6.622 25.4131 5.796 22.6971 5.796 22.6971C5.152 21.0731 4.242 20.6391 4.242 20.6391C2.968 19.7711 4.34 19.7991 4.34 19.7991C5.74 19.8971 6.482 21.2411 6.482 21.2411C7.7 23.3691 9.758 22.7391 10.556 22.4031C10.682 21.4931 11.046 20.8771 11.438 20.5271C8.33 20.1771 5.068 18.9731 5.068 13.6391C5.068 12.0851 5.6 10.8391 6.51 9.84511C6.37 9.49511 5.88 8.03911 6.65 6.14911C6.65 6.14911 7.826 5.77111 10.5 7.57711C11.606 7.26911 12.81 7.11511 14 7.11511C15.19 7.11511 16.394 7.26911 17.5 7.57711C20.174 5.77111 21.35 6.14911 21.35 6.14911C22.12 8.03911 21.63 9.49511 21.49 9.84511C22.4 10.8391 22.932 12.0851 22.932 13.6391C22.932 18.9871 19.656 20.1631 16.534 20.5131C17.038 20.9471 17.5 21.8011 17.5 23.1031V26.9391C17.5 27.3171 17.724 27.7651 18.438 27.6391C23.996 25.7631 28 20.5271 28 14.3391C28 12.5006 27.6379 10.6801 26.9343 8.98154C26.2307 7.28299 25.1995 5.73964 23.8995 4.43962C22.5995 3.1396 21.0561 2.10836 19.3576 1.4048C17.659 0.701232 15.8385 0.339111 14 0.339111Z" fill="#797B88"/>
</svg>
